<svg xmlns="http://www.w3.org/2000/svg" width="375" viewBox="0 0 375 375" height="375" version="1.0"><path fill="#FFF" d="M-37.5 -37.5H412.5V412.5H-37.5z"/><path fill="#FFF" d="M-37.5 -37.5H412.5V412.5H-37.5z"/><path fill="#C4FF00" d="M-37.5 -37.5H412.5V412.5H-37.5z"/><g fill="#B1A1ED"><g><g><path d="M 0.355469 -62.40625 C 3.761719 -61.480469 3.40625 -57.789062 3.40625 -56.9375 L 3.40625 -5.820312 C 3.40625 -2.199219 4.257812 0 7.3125 0 L 24.707031 0 C 22.789062 -1.917969 22.222656 -4.332031 22.222656 -8.378906 L 22.222656 -69.292969 C 22.222656 -70.710938 22.152344 -72.058594 20.089844 -72.058594 C 15.902344 -72.058594 2.839844 -65.671875 0.0703125 -64.320312 C -0.0703125 -64.25 -0.710938 -64.109375 -0.710938 -63.398438 C -0.710938 -62.546875 0.140625 -62.476562 0.355469 -62.40625 Z M 0.355469 -62.40625" transform="translate(37.816 250.646)"/></g></g></g><g fill="#B1A1ED"><g><g><path d="M 9.015625 -6.246094 C 13.84375 -1.347656 20.164062 1.066406 26.625 1.066406 C 33.226562 1.066406 39.96875 -1.5625 45.152344 -6.816406 C 55.304688 -17.109375 55.589844 -33.4375 45.722656 -43.378906 C 40.894531 -48.277344 34.574219 -50.691406 28.113281 -50.691406 C 21.511719 -50.691406 14.765625 -48.0625 9.585938 -42.882812 C -0.640625 -32.585938 -0.851562 -16.257812 9.015625 -6.246094 Z M 23.925781 -46.925781 C 28.539062 -47.636719 33.792969 -38.265625 35.640625 -25.984375 C 37.484375 -13.488281 35.285156 -3.054688 30.742188 -2.34375 C 26.125 -1.632812 20.871094 -10.933594 18.957031 -23.285156 C 17.039062 -35.710938 19.238281 -46.21875 23.925781 -46.925781 Z M 23.925781 -46.925781" transform="translate(63.232 250.646)"/></g></g></g><g fill="#B1A1ED"><g><g><path d="M 24.492188 0 C 22.578125 -1.917969 22.007812 -4.332031 22.007812 -8.378906 L 22.007812 -27.6875 C 22.007812 -35.570312 24.992188 -37.769531 28.257812 -37.769531 C 31.378906 -37.769531 32.300781 -34.714844 32.300781 -31.449219 L 32.300781 -8.378906 C 32.300781 -4.332031 31.734375 -1.917969 29.816406 0 L 53.601562 0 C 51.683594 -1.917969 51.117188 -4.332031 51.117188 -8.378906 L 51.117188 -20.515625 L 51.046875 -34.078125 C 51.046875 -41.460938 49.269531 -50.761719 38.90625 -50.761719 C 26.90625 -50.761719 25.417969 -40.894531 22.503906 -40.894531 C 22.222656 -40.894531 22.007812 -40.894531 22.007812 -42.597656 L 22.007812 -43.804688 C 22.007812 -47.425781 21.15625 -49.695312 18.105469 -49.695312 L 0.710938 -49.695312 C 2.625 -47.78125 3.195312 -45.367188 3.195312 -41.320312 L 3.195312 -8.378906 C 3.195312 -4.332031 2.625 -1.917969 0.710938 0 Z M 24.492188 0" transform="translate(117.967 250.646)"/></g></g></g><g fill="#B1A1ED"><g><g><path d="M 21.867188 1.066406 C 25.558594 1.066406 29.890625 -0.140625 33.652344 -6.246094 C 34.148438 -7.027344 34.929688 -7.527344 34.929688 -6.53125 L 34.929688 -5.820312 C 34.929688 -2.199219 35.78125 0 38.835938 0 L 56.226562 0 C 54.3125 -1.917969 53.742188 -4.332031 53.742188 -8.378906 L 53.742188 -69.292969 C 53.742188 -70.710938 53.671875 -72.058594 51.613281 -72.058594 C 47.425781 -72.058594 34.433594 -65.527344 31.59375 -64.320312 C 31.449219 -64.25 30.8125 -64.109375 30.8125 -63.398438 C 30.8125 -62.546875 31.664062 -62.476562 31.875 -62.40625 C 35.214844 -61.269531 34.929688 -57.789062 34.929688 -56.9375 L 34.929688 -47 C 34.929688 -45.222656 34.078125 -45.152344 33.792969 -45.152344 C 32.375 -45.152344 29.746094 -50.761719 21.867188 -50.761719 C 7.878906 -50.761719 1.773438 -36.632812 1.773438 -23.855469 C 1.773438 -10.082031 9.085938 1.066406 21.867188 1.066406 Z M 29.816406 -43.308594 C 34.21875 -43.308594 34.929688 -36.492188 34.929688 -32.871094 L 34.929688 -19.027344 C 34.929688 -15.121094 34.363281 -7.808594 28.683594 -7.808594 C 20.800781 -7.808594 20.515625 -17.605469 20.515625 -25.84375 C 20.515625 -33.582031 21.9375 -43.308594 29.816406 -43.308594 Z M 29.816406 -43.308594" transform="translate(171.92 250.646)"/></g></g></g><g fill="#B1A1ED"><g><g><path d="M 9.015625 -6.246094 C 13.84375 -1.347656 20.164062 1.066406 26.625 1.066406 C 33.226562 1.066406 39.96875 -1.5625 45.152344 -6.816406 C 55.304688 -17.109375 55.589844 -33.4375 45.722656 -43.378906 C 40.894531 -48.277344 34.574219 -50.691406 28.113281 -50.691406 C 21.511719 -50.691406 14.765625 -48.0625 9.585938 -42.882812 C -0.640625 -32.585938 -0.851562 -16.257812 9.015625 -6.246094 Z M 23.925781 -46.925781 C 28.539062 -47.636719 33.792969 -38.265625 35.640625 -25.984375 C 37.484375 -13.488281 35.285156 -3.054688 30.742188 -2.34375 C 26.125 -1.632812 20.871094 -10.933594 18.957031 -23.285156 C 17.039062 -35.710938 19.238281 -46.21875 23.925781 -46.925781 Z M 23.925781 -46.925781" transform="translate(228.501 250.646)"/></g></g></g><g fill="#B1A1ED"><g><g><path d="M 24.492188 0 C 22.578125 -1.917969 22.007812 -4.332031 22.007812 -8.378906 L 22.007812 -27.6875 C 22.007812 -35.570312 24.992188 -37.769531 28.257812 -37.769531 C 31.378906 -37.769531 32.300781 -34.714844 32.300781 -31.449219 L 32.300781 -8.378906 C 32.300781 -4.332031 31.734375 -1.917969 29.816406 0 L 53.601562 0 C 51.683594 -1.917969 51.117188 -4.332031 51.117188 -8.378906 L 51.117188 -20.515625 L 51.046875 -34.078125 C 51.046875 -41.460938 49.269531 -50.761719 38.90625 -50.761719 C 26.90625 -50.761719 25.417969 -40.894531 22.503906 -40.894531 C 22.222656 -40.894531 22.007812 -40.894531 22.007812 -42.597656 L 22.007812 -43.804688 C 22.007812 -47.425781 21.15625 -49.695312 18.105469 -49.695312 L 0.710938 -49.695312 C 2.625 -47.78125 3.195312 -45.367188 3.195312 -41.320312 L 3.195312 -8.378906 C 3.195312 -4.332031 2.625 -1.917969 0.710938 0 Z M 24.492188 0" transform="translate(283.236 250.646)"/></g></g></g><g fill="#B1A1ED"><g><g><path d="M 19.878906 0 C 18.367188 -1.511719 17.917969 -3.414062 17.917969 -6.605469 L 17.917969 -21.839844 C 17.917969 -28.054688 20.269531 -29.789062 22.847656 -29.789062 C 25.308594 -29.789062 26.039062 -27.382812 26.039062 -24.804688 L 26.039062 -6.605469 C 26.039062 -3.414062 25.589844 -1.511719 24.078125 0 L 42.835938 0 C 41.324219 -1.511719 40.875 -3.414062 40.875 -6.605469 L 40.875 -16.183594 L 40.820312 -22.847656 C 41.101562 -28.222656 43.339844 -29.789062 45.746094 -29.789062 C 48.210938 -29.789062 48.941406 -27.382812 48.941406 -24.804688 L 48.941406 -6.605469 C 48.941406 -3.414062 48.492188 -1.511719 46.980469 0 L 65.738281 0 C 64.226562 -1.511719 63.777344 -3.414062 63.777344 -6.605469 L 63.777344 -16.183594 L 63.722656 -26.878906 C 63.722656 -32.699219 62.324219 -40.035156 54.148438 -40.035156 C 44.683594 -40.035156 43.507812 -32.253906 41.210938 -32.253906 C 41.042969 -32.253906 40.539062 -32.140625 40.148438 -32.867188 C 39.140625 -36.789062 36.675781 -40.035156 31.246094 -40.035156 C 21.78125 -40.035156 20.605469 -32.253906 18.308594 -32.253906 C 18.085938 -32.253906 17.917969 -32.253906 17.917969 -33.597656 L 17.917969 -34.550781 C 17.917969 -37.40625 17.246094 -39.195312 14.839844 -39.195312 L 1.121094 -39.195312 C 2.632812 -37.683594 3.078125 -35.78125 3.078125 -32.589844 L 3.078125 -6.605469 C 3.078125 -3.414062 2.632812 -1.511719 1.121094 0 Z M 19.878906 0" transform="translate(39.738 160.554)"/></g></g></g><g fill="#B1A1ED"><g><g><path d="M 1.398438 -8.734375 C 1.398438 -3.359375 5.933594 0.839844 11.367188 0.839844 C 19.375 0.839844 21 -4.367188 23.351562 -4.367188 C 24.191406 -4.367188 24.636719 -3.359375 24.804688 -2.40625 C 25.085938 -0.894531 26.039062 0 27.71875 0 L 41.4375 0 C 39.925781 -1.511719 39.476562 -3.414062 39.476562 -6.605469 L 39.476562 -23.238281 C 39.476562 -31.246094 33.429688 -40.035156 20.550781 -40.035156 C 14.613281 -40.035156 8.734375 -39.195312 4.925781 -35.558594 C 3.472656 -34.214844 3.808594 -32.195312 3.808594 -30.292969 L 3.808594 -27.214844 C 3.808594 -26.261719 4.648438 -25.421875 5.542969 -25.421875 C 9.015625 -25.421875 12.65625 -36.84375 19.710938 -36.957031 C 23.855469 -37.011719 24.582031 -33.765625 24.582031 -31.300781 C 24.582031 -30.292969 24.191406 -29.171875 22.566406 -28.835938 C 12.039062 -26.652344 1.398438 -20.664062 1.398438 -8.734375 Z M 22.566406 -25.199219 C 24.078125 -25.199219 24.582031 -24.246094 24.582031 -21.726562 C 24.582031 -18.253906 24.636719 -16.183594 24.636719 -12.65625 C 24.636719 -9.015625 23.125 -6.269531 20.101562 -6.269531 C 15.957031 -6.269531 14.78125 -10.078125 14.78125 -14 C 14.78125 -20.886719 18.925781 -25.199219 22.566406 -25.199219 Z M 22.566406 -25.199219" transform="translate(105.753 160.554)"/></g></g></g><g fill="#B1A1ED"><g><g><path d="M 17.246094 0.839844 C 20.15625 0.839844 23.574219 -0.113281 26.542969 -4.925781 C 26.933594 -5.542969 27.550781 -5.933594 27.550781 -5.152344 L 27.550781 -4.589844 C 27.550781 -1.734375 28.222656 0 30.628906 0 L 44.347656 0 C 42.835938 -1.511719 42.386719 -3.414062 42.386719 -6.605469 L 42.386719 -54.652344 C 42.386719 -55.769531 42.332031 -56.835938 40.707031 -56.835938 C 37.40625 -56.835938 27.15625 -51.683594 24.917969 -50.730469 C 24.804688 -50.675781 24.300781 -50.5625 24.300781 -50.003906 C 24.300781 -49.332031 24.972656 -49.277344 25.140625 -49.21875 C 27.773438 -48.324219 27.550781 -45.578125 27.550781 -44.90625 L 27.550781 -37.070312 C 27.550781 -35.667969 26.878906 -35.613281 26.652344 -35.613281 C 25.535156 -35.613281 23.460938 -40.035156 17.246094 -40.035156 C 6.214844 -40.035156 1.398438 -28.894531 1.398438 -18.8125 C 1.398438 -7.953125 7.167969 0.839844 17.246094 0.839844 Z M 23.519531 -34.15625 C 26.988281 -34.15625 27.550781 -28.78125 27.550781 -25.925781 L 27.550781 -15.007812 C 27.550781 -11.925781 27.101562 -6.160156 22.621094 -6.160156 C 16.40625 -6.160156 16.183594 -13.886719 16.183594 -20.382812 C 16.183594 -26.484375 17.300781 -34.15625 23.519531 -34.15625 Z M 23.519531 -34.15625" transform="translate(147.467 160.554)"/></g></g></g><g fill="#B1A1ED"><g><g><path d="M 0 -33.203125 C 0 -32.53125 0.671875 -32.476562 0.839844 -32.421875 C 2.96875 -31.691406 2.6875 -28.78125 2.6875 -28.109375 L 2.6875 -6.605469 C 2.6875 -3.414062 2.238281 -1.511719 0.726562 0 L 19.484375 0 C 17.972656 -1.511719 17.527344 -3.414062 17.527344 -6.605469 L 17.527344 -37.851562 C 17.527344 -38.972656 17.46875 -40.035156 15.847656 -40.035156 C 12.542969 -40.035156 2.800781 -34.996094 0.617188 -33.933594 C 0.503906 -33.878906 0 -33.765625 0 -33.203125 Z M 9.96875 -59.296875 C 5.039062 -59.296875 1.792969 -56.050781 1.792969 -51.125 C 1.792969 -46.195312 5.039062 -42.949219 9.96875 -42.949219 C 14.894531 -42.949219 18.140625 -46.195312 18.140625 -51.125 C 18.140625 -56.050781 14.894531 -59.296875 9.96875 -59.296875 Z M 9.96875 -59.296875" transform="translate(192.093 160.554)"/></g></g></g><g fill="#B1A1ED"><g><g><path d="M 0.839844 -27.996094 C 0.839844 -17.023438 12.65625 -13.4375 21.726562 -13.4375 C 25.980469 -13.4375 29.285156 -14.167969 31.355469 -14.167969 C 32.867188 -14.167969 33.710938 -13.773438 33.710938 -12.429688 C 33.710938 -9.519531 29.675781 -7.28125 25.8125 -7.28125 C 15.566406 -7.28125 9.855469 -14.671875 6.496094 -14.671875 C 4.199219 -14.671875 1.121094 -6.605469 1.121094 -4.199219 C 1.121094 -1.34375 12.261719 0.839844 19.933594 0.839844 C 26.261719 0.839844 36.734375 -2.351562 36.734375 -12.710938 C 36.734375 -23.519531 25.703125 -26.429688 15.789062 -28.164062 C 11.085938 -29.003906 7.335938 -30.125 7.335938 -32.867188 C 7.335938 -35.667969 9.855469 -36.734375 11.816406 -36.734375 C 18.8125 -36.734375 24.191406 -25.703125 31.636719 -25.703125 C 33.652344 -25.703125 36.84375 -29.566406 36.84375 -33.316406 C 36.84375 -36.566406 28.726562 -40.035156 18.871094 -40.035156 C 10.414062 -40.035156 0.839844 -37.347656 0.839844 -27.996094 Z M 0.839844 -27.996094" transform="translate(211.858 160.554)"/></g></g></g><g fill="#B1A1ED"><g><g><path d="M 7.113281 -4.925781 C 10.917969 -1.0625 15.902344 0.839844 21 0.839844 C 26.207031 0.839844 31.523438 -1.230469 35.613281 -5.375 C 43.621094 -13.496094 43.84375 -26.375 36.0625 -34.214844 C 32.253906 -38.078125 27.269531 -39.980469 22.175781 -39.980469 C 16.964844 -39.980469 11.648438 -37.910156 7.558594 -33.820312 C -0.503906 -25.703125 -0.671875 -12.824219 7.113281 -4.925781 Z M 18.871094 -37.011719 C 22.511719 -37.574219 26.652344 -30.179688 28.109375 -20.496094 C 29.566406 -10.640625 27.828125 -2.40625 24.246094 -1.847656 C 20.605469 -1.289062 16.460938 -8.625 14.949219 -18.367188 C 13.4375 -28.164062 15.175781 -36.453125 18.871094 -37.011719 Z M 18.871094 -37.011719" transform="translate(249.541 160.554)"/></g></g></g><g fill="#B1A1ED"><g><g><path d="M 19.316406 0 C 17.804688 -1.511719 17.359375 -3.414062 17.359375 -6.605469 L 17.359375 -21.839844 C 17.359375 -28.054688 19.710938 -29.789062 22.285156 -29.789062 C 24.75 -29.789062 25.476562 -27.382812 25.476562 -24.804688 L 25.476562 -6.605469 C 25.476562 -3.414062 25.03125 -1.511719 23.519531 0 L 42.277344 0 C 40.765625 -1.511719 40.316406 -3.414062 40.316406 -6.605469 L 40.316406 -16.183594 L 40.261719 -26.878906 C 40.261719 -32.699219 38.859375 -40.035156 30.683594 -40.035156 C 21.222656 -40.035156 20.046875 -32.253906 17.75 -32.253906 C 17.527344 -32.253906 17.359375 -32.253906 17.359375 -33.597656 L 17.359375 -34.550781 C 17.359375 -37.40625 16.6875 -39.195312 14.277344 -39.195312 L 0.558594 -39.195312 C 2.070312 -37.683594 2.519531 -35.78125 2.519531 -32.589844 L 2.519531 -6.605469 C 2.519531 -3.414062 2.070312 -1.511719 0.558594 0 Z M 19.316406 0" transform="translate(292.71 160.554)"/></g></g></g></svg>